<mxfile host="app.diagrams.net" modified="2020-11-22T02:35:05.603Z" agent="5.0 (Windows NT 10.0; Win64; x64) AppleWebKit/537.36 (KHTML, like Gecko) Chrome/87.0.4280.66 Safari/537.36" etag="yirFHYr5gZ4p1hbpZbEG" version="13.9.9" type="github">
  <diagram id="C5RBs43oDa-KdzZeNtuy" name="Page-1">
    <mxGraphModel dx="1777" dy="1074" grid="1" gridSize="10" guides="1" tooltips="1" connect="1" arrows="1" fold="1" page="1" pageScale="1" pageWidth="827" pageHeight="1169" math="0" shadow="0">
      <root>
        <mxCell id="WIyWlLk6GJQsqaUBKTNV-0" />
        <mxCell id="WIyWlLk6GJQsqaUBKTNV-1" parent="WIyWlLk6GJQsqaUBKTNV-0" />
        <mxCell id="uR5YsCSZwVzacqd6R-2E-0" value="Conan" style="swimlane;fontStyle=2;align=center;verticalAlign=top;childLayout=stackLayout;horizontal=1;startSize=26;horizontalStack=0;resizeParent=1;resizeLast=0;collapsible=1;marginBottom=0;rounded=0;shadow=0;strokeWidth=1;" vertex="1" parent="WIyWlLk6GJQsqaUBKTNV-1">
          <mxGeometry x="130" y="250" width="600" height="300" as="geometry">
            <mxRectangle x="230" y="140" width="160" height="26" as="alternateBounds" />
          </mxGeometry>
        </mxCell>
        <mxCell id="uR5YsCSZwVzacqd6R-2E-1" value="~nama:String &#xa;~peran:String &#xa;~keluarga:String &#xa;~penampilanPertama:String &#xa;&#xa;" style="text;align=left;verticalAlign=top;spacingLeft=4;spacingRight=4;overflow=hidden;rotatable=0;points=[[0,0.5],[1,0.5]];portConstraint=eastwest;" vertex="1" parent="uR5YsCSZwVzacqd6R-2E-0">
          <mxGeometry y="26" width="600" height="74" as="geometry" />
        </mxCell>
        <mxCell id="uR5YsCSZwVzacqd6R-2E-2" value="" style="line;html=1;strokeWidth=1;align=left;verticalAlign=middle;spacingTop=-1;spacingLeft=3;spacingRight=3;rotatable=0;labelPosition=right;points=[];portConstraint=eastwest;" vertex="1" parent="uR5YsCSZwVzacqd6R-2E-0">
          <mxGeometry y="100" width="600" height="8" as="geometry" />
        </mxCell>
        <mxCell id="uR5YsCSZwVzacqd6R-2E-3" value="+Conan(nama:String ,peran:String ,keluarga:String,penampilanPertama:String) &#xa;" style="text;align=left;verticalAlign=top;spacingLeft=4;spacingRight=4;overflow=hidden;rotatable=0;points=[[0,0.5],[1,0.5]];portConstraint=eastwest;" vertex="1" parent="uR5YsCSZwVzacqd6R-2E-0">
          <mxGeometry y="108" width="600" height="26" as="geometry" />
        </mxCell>
        <mxCell id="uR5YsCSZwVzacqd6R-2E-4" value="+getNama():String" style="text;align=left;verticalAlign=top;spacingLeft=4;spacingRight=4;overflow=hidden;rotatable=0;points=[[0,0.5],[1,0.5]];portConstraint=eastwest;fontStyle=4" vertex="1" parent="uR5YsCSZwVzacqd6R-2E-0">
          <mxGeometry y="134" width="600" height="19" as="geometry" />
        </mxCell>
        <mxCell id="uR5YsCSZwVzacqd6R-2E-5" value="+setNama(nama:String):void" style="text;align=left;verticalAlign=top;spacingLeft=4;spacingRight=4;overflow=hidden;rotatable=0;points=[[0,0.5],[1,0.5]];portConstraint=eastwest;fontStyle=4" vertex="1" parent="uR5YsCSZwVzacqd6R-2E-0">
          <mxGeometry y="153" width="600" height="19" as="geometry" />
        </mxCell>
        <mxCell id="uR5YsCSZwVzacqd6R-2E-6" value="+getPeran():String" style="text;align=left;verticalAlign=top;spacingLeft=4;spacingRight=4;overflow=hidden;rotatable=0;points=[[0,0.5],[1,0.5]];portConstraint=eastwest;fontStyle=4" vertex="1" parent="uR5YsCSZwVzacqd6R-2E-0">
          <mxGeometry y="172" width="600" height="19" as="geometry" />
        </mxCell>
        <mxCell id="uR5YsCSZwVzacqd6R-2E-7" value="+setPeran(Peran:String):void" style="text;align=left;verticalAlign=top;spacingLeft=4;spacingRight=4;overflow=hidden;rotatable=0;points=[[0,0.5],[1,0.5]];portConstraint=eastwest;fontStyle=4" vertex="1" parent="uR5YsCSZwVzacqd6R-2E-0">
          <mxGeometry y="191" width="600" height="19" as="geometry" />
        </mxCell>
        <mxCell id="uR5YsCSZwVzacqd6R-2E-8" value="+getKeluarga():String" style="text;align=left;verticalAlign=top;spacingLeft=4;spacingRight=4;overflow=hidden;rotatable=0;points=[[0,0.5],[1,0.5]];portConstraint=eastwest;fontStyle=4" vertex="1" parent="uR5YsCSZwVzacqd6R-2E-0">
          <mxGeometry y="210" width="600" height="19" as="geometry" />
        </mxCell>
        <mxCell id="uR5YsCSZwVzacqd6R-2E-9" value="+setKeluarga(Keluarga:String):void" style="text;align=left;verticalAlign=top;spacingLeft=4;spacingRight=4;overflow=hidden;rotatable=0;points=[[0,0.5],[1,0.5]];portConstraint=eastwest;fontStyle=4" vertex="1" parent="uR5YsCSZwVzacqd6R-2E-0">
          <mxGeometry y="229" width="600" height="19" as="geometry" />
        </mxCell>
        <mxCell id="uR5YsCSZwVzacqd6R-2E-10" value="+getPenampilanPertama():String" style="text;align=left;verticalAlign=top;spacingLeft=4;spacingRight=4;overflow=hidden;rotatable=0;points=[[0,0.5],[1,0.5]];portConstraint=eastwest;fontStyle=4" vertex="1" parent="uR5YsCSZwVzacqd6R-2E-0">
          <mxGeometry y="248" width="600" height="19" as="geometry" />
        </mxCell>
        <mxCell id="uR5YsCSZwVzacqd6R-2E-11" value="+setPenampilanPertama(PenampilanPertama:String):void" style="text;align=left;verticalAlign=top;spacingLeft=4;spacingRight=4;overflow=hidden;rotatable=0;points=[[0,0.5],[1,0.5]];portConstraint=eastwest;fontStyle=4" vertex="1" parent="uR5YsCSZwVzacqd6R-2E-0">
          <mxGeometry y="267" width="600" height="19" as="geometry" />
        </mxCell>
        <mxCell id="uR5YsCSZwVzacqd6R-2E-28" style="rounded=0;orthogonalLoop=1;jettySize=auto;html=1;exitX=0.5;exitY=0;exitDx=0;exitDy=0;entryX=0.5;entryY=1;entryDx=0;entryDy=0;" edge="1" parent="WIyWlLk6GJQsqaUBKTNV-1" source="uR5YsCSZwVzacqd6R-2E-18" target="uR5YsCSZwVzacqd6R-2E-0">
          <mxGeometry relative="1" as="geometry" />
        </mxCell>
        <mxCell id="uR5YsCSZwVzacqd6R-2E-18" value="PemeranPembantu" style="swimlane;fontStyle=0;align=center;verticalAlign=top;childLayout=stackLayout;horizontal=1;startSize=26;horizontalStack=0;resizeParent=1;resizeLast=0;collapsible=1;marginBottom=0;rounded=0;shadow=0;strokeWidth=1;" vertex="1" parent="WIyWlLk6GJQsqaUBKTNV-1">
          <mxGeometry x="-150" y="750" width="506" height="190" as="geometry">
            <mxRectangle x="130" y="380" width="160" height="26" as="alternateBounds" />
          </mxGeometry>
        </mxCell>
        <mxCell id="uR5YsCSZwVzacqd6R-2E-19" value="+status2:String" style="text;align=left;verticalAlign=top;spacingLeft=4;spacingRight=4;overflow=hidden;rotatable=0;points=[[0,0.5],[1,0.5]];portConstraint=eastwest;" vertex="1" parent="uR5YsCSZwVzacqd6R-2E-18">
          <mxGeometry y="26" width="506" height="26" as="geometry" />
        </mxCell>
        <mxCell id="uR5YsCSZwVzacqd6R-2E-21" value="" style="line;html=1;strokeWidth=1;align=left;verticalAlign=middle;spacingTop=-1;spacingLeft=3;spacingRight=3;rotatable=0;labelPosition=right;points=[];portConstraint=eastwest;" vertex="1" parent="uR5YsCSZwVzacqd6R-2E-18">
          <mxGeometry y="52" width="506" height="8" as="geometry" />
        </mxCell>
        <mxCell id="uR5YsCSZwVzacqd6R-2E-29" value="+Conan(status2:String,nama:String ,peran:String ,keluarga:String,penampilanPertama:String) &#xa;" style="text;align=left;verticalAlign=top;spacingLeft=4;spacingRight=4;overflow=hidden;rotatable=0;points=[[0,0.5],[1,0.5]];portConstraint=eastwest;" vertex="1" parent="uR5YsCSZwVzacqd6R-2E-18">
          <mxGeometry y="60" width="506" height="26" as="geometry" />
        </mxCell>
        <mxCell id="uR5YsCSZwVzacqd6R-2E-22" value="+getStatus2():String" style="text;align=left;verticalAlign=top;spacingLeft=4;spacingRight=4;overflow=hidden;rotatable=0;points=[[0,0.5],[1,0.5]];portConstraint=eastwest;fontStyle=4" vertex="1" parent="uR5YsCSZwVzacqd6R-2E-18">
          <mxGeometry y="86" width="506" height="19" as="geometry" />
        </mxCell>
        <mxCell id="uR5YsCSZwVzacqd6R-2E-30" value="+getNama():String" style="text;align=left;verticalAlign=top;spacingLeft=4;spacingRight=4;overflow=hidden;rotatable=0;points=[[0,0.5],[1,0.5]];portConstraint=eastwest;fontStyle=4" vertex="1" parent="uR5YsCSZwVzacqd6R-2E-18">
          <mxGeometry y="105" width="506" height="19" as="geometry" />
        </mxCell>
        <mxCell id="uR5YsCSZwVzacqd6R-2E-31" value="+getPeran():String" style="text;align=left;verticalAlign=top;spacingLeft=4;spacingRight=4;overflow=hidden;rotatable=0;points=[[0,0.5],[1,0.5]];portConstraint=eastwest;fontStyle=4" vertex="1" parent="uR5YsCSZwVzacqd6R-2E-18">
          <mxGeometry y="124" width="506" height="19" as="geometry" />
        </mxCell>
        <mxCell id="uR5YsCSZwVzacqd6R-2E-32" value="+getKeluarga():String" style="text;align=left;verticalAlign=top;spacingLeft=4;spacingRight=4;overflow=hidden;rotatable=0;points=[[0,0.5],[1,0.5]];portConstraint=eastwest;fontStyle=4" vertex="1" parent="uR5YsCSZwVzacqd6R-2E-18">
          <mxGeometry y="143" width="506" height="19" as="geometry" />
        </mxCell>
        <mxCell id="uR5YsCSZwVzacqd6R-2E-33" value="+getPenampilanPertama():String" style="text;align=left;verticalAlign=top;spacingLeft=4;spacingRight=4;overflow=hidden;rotatable=0;points=[[0,0.5],[1,0.5]];portConstraint=eastwest;fontStyle=4" vertex="1" parent="uR5YsCSZwVzacqd6R-2E-18">
          <mxGeometry y="162" width="506" height="19" as="geometry" />
        </mxCell>
        <mxCell id="uR5YsCSZwVzacqd6R-2E-44" style="edgeStyle=none;rounded=0;orthogonalLoop=1;jettySize=auto;html=1;entryX=1;entryY=0.5;entryDx=0;entryDy=0;" edge="1" parent="uR5YsCSZwVzacqd6R-2E-18" source="uR5YsCSZwVzacqd6R-2E-18" target="uR5YsCSZwVzacqd6R-2E-22">
          <mxGeometry relative="1" as="geometry" />
        </mxCell>
        <mxCell id="uR5YsCSZwVzacqd6R-2E-43" style="edgeStyle=none;rounded=0;orthogonalLoop=1;jettySize=auto;html=1;exitX=0.5;exitY=0;exitDx=0;exitDy=0;entryX=0.5;entryY=1;entryDx=0;entryDy=0;" edge="1" parent="WIyWlLk6GJQsqaUBKTNV-1" source="uR5YsCSZwVzacqd6R-2E-34" target="uR5YsCSZwVzacqd6R-2E-0">
          <mxGeometry relative="1" as="geometry" />
        </mxCell>
        <mxCell id="uR5YsCSZwVzacqd6R-2E-34" value="PemeranUtama" style="swimlane;fontStyle=0;align=center;verticalAlign=top;childLayout=stackLayout;horizontal=1;startSize=26;horizontalStack=0;resizeParent=1;resizeLast=0;collapsible=1;marginBottom=0;rounded=0;shadow=0;strokeWidth=1;" vertex="1" parent="WIyWlLk6GJQsqaUBKTNV-1">
          <mxGeometry x="480" y="750" width="500" height="190" as="geometry">
            <mxRectangle x="130" y="380" width="160" height="26" as="alternateBounds" />
          </mxGeometry>
        </mxCell>
        <mxCell id="uR5YsCSZwVzacqd6R-2E-35" value="+status:String" style="text;align=left;verticalAlign=top;spacingLeft=4;spacingRight=4;overflow=hidden;rotatable=0;points=[[0,0.5],[1,0.5]];portConstraint=eastwest;" vertex="1" parent="uR5YsCSZwVzacqd6R-2E-34">
          <mxGeometry y="26" width="500" height="26" as="geometry" />
        </mxCell>
        <mxCell id="uR5YsCSZwVzacqd6R-2E-36" value="" style="line;html=1;strokeWidth=1;align=left;verticalAlign=middle;spacingTop=-1;spacingLeft=3;spacingRight=3;rotatable=0;labelPosition=right;points=[];portConstraint=eastwest;" vertex="1" parent="uR5YsCSZwVzacqd6R-2E-34">
          <mxGeometry y="52" width="500" height="8" as="geometry" />
        </mxCell>
        <mxCell id="uR5YsCSZwVzacqd6R-2E-37" value="+Conan(status:String,nama:String ,peran:String ,keluarga:String,penampilanPertama:String) &#xa;" style="text;align=left;verticalAlign=top;spacingLeft=4;spacingRight=4;overflow=hidden;rotatable=0;points=[[0,0.5],[1,0.5]];portConstraint=eastwest;" vertex="1" parent="uR5YsCSZwVzacqd6R-2E-34">
          <mxGeometry y="60" width="500" height="26" as="geometry" />
        </mxCell>
        <mxCell id="uR5YsCSZwVzacqd6R-2E-38" value="+getStatus2():String" style="text;align=left;verticalAlign=top;spacingLeft=4;spacingRight=4;overflow=hidden;rotatable=0;points=[[0,0.5],[1,0.5]];portConstraint=eastwest;fontStyle=4" vertex="1" parent="uR5YsCSZwVzacqd6R-2E-34">
          <mxGeometry y="86" width="500" height="19" as="geometry" />
        </mxCell>
        <mxCell id="uR5YsCSZwVzacqd6R-2E-39" value="+getNama():String" style="text;align=left;verticalAlign=top;spacingLeft=4;spacingRight=4;overflow=hidden;rotatable=0;points=[[0,0.5],[1,0.5]];portConstraint=eastwest;fontStyle=4" vertex="1" parent="uR5YsCSZwVzacqd6R-2E-34">
          <mxGeometry y="105" width="500" height="19" as="geometry" />
        </mxCell>
        <mxCell id="uR5YsCSZwVzacqd6R-2E-40" value="+getPeran():String" style="text;align=left;verticalAlign=top;spacingLeft=4;spacingRight=4;overflow=hidden;rotatable=0;points=[[0,0.5],[1,0.5]];portConstraint=eastwest;fontStyle=4" vertex="1" parent="uR5YsCSZwVzacqd6R-2E-34">
          <mxGeometry y="124" width="500" height="19" as="geometry" />
        </mxCell>
        <mxCell id="uR5YsCSZwVzacqd6R-2E-41" value="+getKeluarga():String" style="text;align=left;verticalAlign=top;spacingLeft=4;spacingRight=4;overflow=hidden;rotatable=0;points=[[0,0.5],[1,0.5]];portConstraint=eastwest;fontStyle=4" vertex="1" parent="uR5YsCSZwVzacqd6R-2E-34">
          <mxGeometry y="143" width="500" height="19" as="geometry" />
        </mxCell>
        <mxCell id="uR5YsCSZwVzacqd6R-2E-42" value="+getPenampilanPertama():String" style="text;align=left;verticalAlign=top;spacingLeft=4;spacingRight=4;overflow=hidden;rotatable=0;points=[[0,0.5],[1,0.5]];portConstraint=eastwest;fontStyle=4" vertex="1" parent="uR5YsCSZwVzacqd6R-2E-34">
          <mxGeometry y="162" width="500" height="19" as="geometry" />
        </mxCell>
      </root>
    </mxGraphModel>
  </diagram>
</mxfile>
